<?xml version="1.0"?><svg version="1.1" id="Layer_1" xmlns="http://www.w3.org/2000/svg" x="0" y="0" viewBox="0 0 100 100" xml:space="preserve"><path d="M92.5 50c0 7.2-1.9 14.4-5.4 20.7C79.6 84.2 65.4 92.5 50 92.5c-1.6 0-3-1.3-3-3 0-1.6 1.3-3 3-3 13.2 0 25.5-7.2 31.9-18.7 3-5.4 4.6-11.6 4.6-17.8 0-6.6-1.8-13.1-5.2-18.7-.8-1.4-.4-3.2 1-4.1 1.4-.8 3.2-.4 4.1 1 4 6.6 6.1 14.1 6.1 21.8z" fill="#e15c64"/><path d="M18.6 31.3c6.6-11 18.6-17.8 31.4-17.8 1.6 0 3-1.3 3-3s-1.3-3-3-3c-14.9 0-28.9 7.9-36.5 20.7-3.9 6.6-6 14.1-6 21.8 0 7.2 1.9 14.4 5.4 20.7.5 1 1.6 1.5 2.6 1.5.5 0 1-.1 1.4-.4 1.4-.8 1.9-2.6 1.1-4-3-5.4-4.6-11.6-4.6-17.8 0-6.6 1.8-13.1 5.2-18.7z" fill="#e15c64"/><path d="M53 74.7c0-1.6-1.3-3-3-3-7.9 0-15.3-4.3-19.1-11.3-1.7-3.2-2.7-6.8-2.7-10.4 0-4 1.1-7.9 3.2-11.3.9-1.4.4-3.2-1-4.1-1.4-.9-3.2-.4-4.1 1-2.6 4.3-4 9.3-4 14.4 0 4.6 1.2 9.2 3.4 13.3 4.9 8.9 14.2 14.4 24.3 14.4 1.6 0 3-1.4 3-3z" fill="#f47e5f"/><path d="M47 25.3c0 1.6 1.3 3 3 3 7.6 0 14.6 3.9 18.6 10.4 2.1 3.4 3.2 7.3 3.2 11.3 0 3.6-.9 7.3-2.7 10.4-.8 1.4-.3 3.2 1.2 4 .5.2.9.4 1.4.4 1 0 2.1-.6 2.6-1.5 2.2-4 3.4-8.6 3.4-13.3 0-5.1-1.4-10.1-4-14.4-5.1-8.3-14-13.3-23.7-13.3-1.6 0-3 1.4-3 3z" fill="#f47e5f"/><metadata xmlns:d="https://loading.io/stock/">
<d:name>ring</d:name>
<d:tags>onion,tree ring,curve bar,circle,concentric,c,round,bracket,ring,spinner</d:tags>
<d:license>by</d:license>
<d:slug>d47xk2</d:slug>
</metadata></svg>